# xmcd
#
# Track frame offsets:
#	150
#	16050
#	30663
#	43372
#
# Disc length: 787 seconds
#
# Revision: 0
# Processed by: cddbd v1.5.2PL0 Copyright (c) Steve Scherf et al.
# Submitted via: audiograbber 1.83.01
#
DISCID=29031104
DTITLE=Lindi Ortega - Tennessee Christmas
DYEAR=2011
DGENRE=Country
TTITLE0=Christmas Eve With You
TTITLE1=All I Want For Christmas Is A Cowboy
TTITLE2=Blue Christmas
TTITLE3=Christmas Carol
EXTD=
EXTT0=
EXTT1=
EXTT2=
EXTT3=
PLAYORDER=
